<?xml version="1.0" encoding="iso-8859-1"?>
<!-- Generator: Adobe Illustrator 19.0.0, SVG Export Plug-In . SVG Version: 6.00 Build 0)  -->
<svg version="1.1" id="Capa_1" xmlns="http://www.w3.org/2000/svg" xmlns:xlink="http://www.w3.org/1999/xlink" x="0px" y="0px"
	 viewBox="0 0 455.111 455.111" style="enable-background:new 0 0 455.111 455.111;" xml:space="preserve">
<ellipse style="fill:#E24C4B;" cx="227.556" cy="227.556" rx="227.556" ry="227.556"/>
<path style="fill:#FFFFFF;" d="M227.523,412.441c-102.4,0-184.889-82.489-184.889-184.889S125.123,42.663,227.523,42.663
	s184.889,82.489,184.889,184.889S329.923,412.441,227.523,412.441z"/>
<g>
	<path style="fill:#3F4448;" d="M342.723,149.33h-230.4c-12.8,0-22.756,9.956-22.756,22.756v140.8
		c0,12.8,9.956,22.756,22.756,22.756h230.4c12.8,0,22.756-9.956,22.756-22.756v-140.8
		C366.901,159.285,355.523,149.33,342.723,149.33z M172.057,197.685c0,2.844-1.422,4.267-4.267,4.267h-39.822
		c-2.844,0-4.267-1.422-4.267-4.267v-9.956c0-2.844,1.422-4.267,4.267-4.267h39.822c2.844,0,4.267,1.422,4.267,4.267V197.685z
		 M265.923,300.085c-31.289,0-56.889-25.6-56.889-56.889s25.6-56.889,56.889-56.889s56.889,25.6,56.889,56.889
		C322.812,274.485,297.212,300.085,265.923,300.085z"/>
	<path style="fill:#3F4448;" d="M302.901,243.196c0,21.333-17.067,38.4-38.4,38.4s-38.4-17.067-38.4-38.4s17.067-38.4,38.4-38.4
		c5.689,0,11.378,1.422,15.644,2.844c-5.689,2.844-9.956,8.533-9.956,15.644c0,8.533,7.111,17.067,17.067,17.067
		c5.689,0,11.378-2.844,14.222-7.111C302.901,236.085,302.901,238.93,302.901,243.196z"/>
	<path style="fill:#3F4448;" d="M157.835,143.641v15.644c0,2.844-1.422,4.267-4.267,4.267h-27.022c-2.844,0-4.267-2.844-4.267-4.267
		v-15.644c0-2.844,2.844-4.267,4.267-4.267h27.022C154.99,137.952,157.835,140.796,157.835,143.641z"/>
	<path style="fill:#3F4448;" d="M314.279,153.596h-99.556l9.956-28.444c1.422-4.267,5.689-7.111,9.956-7.111h61.156
		c4.267,0,8.533,2.844,9.956,7.111L314.279,153.596z"/>
</g>
<polygon style="fill:#E24C4B;" points="382.546,352.707 352.679,382.574 71.079,102.396 102.368,71.107 "/>
<g>
</g>
<g>
</g>
<g>
</g>
<g>
</g>
<g>
</g>
<g>
</g>
<g>
</g>
<g>
</g>
<g>
</g>
<g>
</g>
<g>
</g>
<g>
</g>
<g>
</g>
<g>
</g>
<g>
</g>
</svg>
